# xmcd
# 
# Track frame offsets:
#     150
#     19425
#     44889
#     68199
#     83178
#     103284
#     118509
#     146466
#     164463
#     191205
#     204900
#     221568
#     242814
#     261285
# 
# Disc length: 3905
# 
# Revision: 0
# Processed by: cddbd v1.5.2PL0 Copyright (c) Steve Scherf et al.
# Submitted via: BonkEnc v1.0.8
# 
DISCID=db0f3f0e
DTITLE=Various Artist - Top Cat Blues Festival Vol 1
DYEAR=1997
DGENRE=Blues
TTITLE0=Charlie Musselwhite - River Hip Mama
TTITLE1=Sugar Blue - Gucci Gucci Man
TTITLE2=Robben Ford and The Blue Line - Don´t Let Me Be Misunderstood
TTITLE3=Larry Mccray - I Don´t Mind
TTITLE4=The Jeff Healey Band - Angel
TTITLE5=The Fabulous Thunderbirds - Tuff Enuff
TTITLE6=Lonnie Brooks and Koko Taylor - If The Price is Right
TTITLE7=John Hammond - No One Can Forgive Me But My Baby
TTITLE8=Tuck and Patti - Castles Made of Sand/ Little Wing
TTITLE9=C.J. Chenier - Man Smart, Woman Smarter
TTITLE10=Roy Rogers - Blues for Brasil
TTITLE11=Michael Hill´s Blues Mob - Heading Home
TTITLE12=10,000 Maniacs - More Than This
TTITLE13=Stanley Jordan - Eleanor Rigby
EXTD=
EXTT0=
EXTT1=
EXTT2=
EXTT3=
EXTT4=
EXTT5=
EXTT6=
EXTT7=
EXTT8=
EXTT9=
EXTT10=
EXTT11=
EXTT12=
EXTT13=
PLAYORDER=
